<?xml version="1.0" encoding="utf-8"?>
<!-- Generator: Adobe Illustrator 15.0.2, SVG Export Plug-In . SVG Version: 6.00 Build 0)  -->
<!DOCTYPE svg PUBLIC "-//W3C//DTD SVG 1.1//EN" "http://www.w3.org/Graphics/SVG/1.1/DTD/svg11.dtd">
<svg version="1.1" id="Слой_1" xmlns="http://www.w3.org/2000/svg" xmlns:xlink="http://www.w3.org/1999/xlink" x="0px" y="0px"
	 width="76.535px" height="16px" viewBox="0 0 76.535 16" enable-background="new 0 0 76.535 16" xml:space="preserve">
<g>
	<path fill="#323845" d="M12.877,10.093c0,0.509-0.411,0.915-0.92,0.915h-1.863V9.172h1.863
		C12.438,9.172,12.877,9.584,12.877,10.093z M22.377,5.473c-1.384,0-2.514,1.129-2.514,2.53c0,1.384,1.13,2.524,2.514,2.524
		c1.4,0,2.53-1.144,2.53-2.524C24.908,6.602,23.778,5.473,22.377,5.473z M12.354,5.924c0-0.508-0.407-0.915-0.915-0.915h-1.345
		v1.836h1.345C11.946,6.845,12.354,6.433,12.354,5.924z M76.535,2.705v10.59c0,1.484-1.215,2.699-2.699,2.699H2.699
		C1.216,15.994,0,14.779,0,13.295V2.705c0-1.484,1.216-2.699,2.699-2.699h71.137C75.32,0.006,76.535,1.221,76.535,2.705z
		 M15.646,10.188c0-0.959-0.48-1.847-1.203-2.428c0.412-0.52,0.679-1.187,0.679-1.904c0-1.694-1.44-3.151-3.136-3.151h-4.67v10.59
		h5.224C14.217,13.295,15.646,11.872,15.646,10.188z M27.669,8.014c0-2.92-2.365-5.309-5.292-5.309c-2.92,0-5.279,2.389-5.279,5.309
		c0,2.925,2.359,5.281,5.279,5.281C25.304,13.295,27.669,10.939,27.669,8.014z M37.672,2.705h-2.796v6.371
		c0,0.762-0.622,1.384-1.384,1.384c-0.763,0-1.384-0.622-1.384-1.384V2.705h-2.795v6.41c0,2.333,1.847,4.18,4.18,4.18
		c2.299,0,4.18-1.847,4.18-4.18L37.672,2.705L37.672,2.705z M48.713,2.705H45.93v4.999l-5.011-4.999h-1.13v10.59h2.779v-5.01
		l4.998,5.01h1.146L48.713,2.705L48.713,2.705z M58.938,11.73l-1.979-1.948c-0.439,0.45-1.063,0.706-1.777,0.706
		c-1.439,0-2.486-1.045-2.486-2.485c0-1.44,1.047-2.485,2.486-2.485c0.717,0,1.338,0.254,1.777,0.689l1.948-1.96
		c-0.96-0.96-2.274-1.542-3.728-1.542c-2.928,0-5.301,2.372-5.301,5.298c0,2.92,2.373,5.292,5.301,5.292
		C56.648,13.295,57.977,12.689,58.938,11.73z M70.471,2.705h-3.203l-2.051,3.53l-2.031-3.53h-3.203l3.869,6.691v3.896h2.75V9.396
		L70.471,2.705z"/>
	<path fill="#FFFFFF" d="M27.669,8.014c0-2.92-2.365-5.309-5.292-5.309c-2.92,0-5.279,2.389-5.279,5.309
		c0,2.925,2.359,5.281,5.279,5.281C25.304,13.295,27.669,10.939,27.669,8.014z M19.863,8.003c0-1.401,1.13-2.53,2.514-2.53
		c1.401,0,2.531,1.129,2.53,2.53c0,1.381-1.13,2.524-2.53,2.524C20.993,10.527,19.863,9.387,19.863,8.003z M11.986,2.705h-4.67
		v10.59h5.224c1.677,0,3.106-1.423,3.106-3.107c0-0.959-0.48-1.847-1.203-2.428c0.412-0.52,0.679-1.187,0.679-1.904
		C15.122,4.162,13.682,2.705,11.986,2.705z M10.094,5.009h1.345c0.508,0,0.915,0.407,0.915,0.915c0,0.509-0.408,0.921-0.915,0.921
		h-1.345V5.009z M11.957,11.008h-1.863V9.172h1.863c0.481,0,0.92,0.412,0.92,0.921S12.466,11.008,11.957,11.008z M32.108,2.705
		v6.371c0,0.762,0.621,1.384,1.384,1.384c0.762,0,1.384-0.622,1.384-1.384V2.705h2.796l0.001,6.41c0,2.333-1.881,4.18-4.18,4.18
		c-2.333,0-4.18-1.847-4.18-4.18v-6.41H32.108z M52.695,8.003c0,1.44,1.047,2.485,2.486,2.485c0.715,0,1.338-0.256,1.777-0.706
		l1.979,1.948c-0.961,0.959-2.289,1.564-3.758,1.564c-2.928,0-5.301-2.372-5.301-5.292c0-2.926,2.373-5.298,5.301-5.298
		c1.453,0,2.768,0.582,3.728,1.542l-1.948,1.96c-0.439-0.435-1.061-0.689-1.777-0.689C53.742,5.518,52.695,6.563,52.695,8.003z
		 M67.268,2.705h3.203l-3.869,6.691v3.896h-2.75V9.396l-3.869-6.691h3.203l2.031,3.53L67.268,2.705z M42.568,8.285v5.01h-2.779
		V2.705h1.13l5.011,4.999V2.705h2.783l-0.001,10.59h-1.146L42.568,8.285z"/>
</g>
</svg>
